<svg xmlns="http://www.w3.org/2000/svg" viewBox="0 0 32 32" shape-rendering="crispEdges">
  <!-- Dog Teen - Dark brown wolf-like with fierce look -->

  <!-- Shadow -->
  <rect x="6" y="28" width="20" height="2" fill="#78350f"/>

  <!-- Pointed ears (left - larger) -->
  <rect x="7" y="1" width="3" height="1" fill="#000"/>
  <rect x="6" y="2" width="1" height="4" fill="#000"/>
  <rect x="10" y="2" width="1" height="1" fill="#000"/>
  <rect x="7" y="3" width="3" height="1" fill="#000"/>
  <rect x="7" y="4" width="1" height="2" fill="#000"/>
  <rect x="8" y="5" width="3" height="1" fill="#000"/>
  <!-- Ear fill -->
  <rect x="7" y="2" width="3" height="1" fill="#92400e"/>
  <rect x="8" y="3" width="1" height="1" fill="#92400e"/>
  <rect x="8" y="4" width="1" height="1" fill="#fda4af"/>

  <!-- Pointed ears (right - larger) -->
  <rect x="22" y="1" width="3" height="1" fill="#000"/>
  <rect x="25" y="2" width="1" height="4" fill="#000"/>
  <rect x="21" y="2" width="1" height="1" fill="#000"/>
  <rect x="22" y="3" width="3" height="1" fill="#000"/>
  <rect x="24" y="4" width="1" height="2" fill="#000"/>
  <rect x="21" y="5" width="3" height="1" fill="#000"/>
  <!-- Ear fill -->
  <rect x="22" y="2" width="3" height="1" fill="#92400e"/>
  <rect x="23" y="3" width="1" height="1" fill="#92400e"/>
  <rect x="23" y="4" width="1" height="1" fill="#fda4af"/>

  <!-- Head outline -->
  <rect x="10" y="3" width="12" height="1" fill="#000"/>
  <rect x="9" y="4" width="1" height="1" fill="#000"/>
  <rect x="22" y="4" width="1" height="1" fill="#000"/>
  <rect x="8" y="5" width="1" height="3" fill="#000"/>
  <rect x="23" y="5" width="1" height="3" fill="#000"/>
  <rect x="7" y="8" width="1" height="5" fill="#000"/>
  <rect x="24" y="8" width="1" height="5" fill="#000"/>

  <!-- Body outline -->
  <rect x="6" y="13" width="1" height="7" fill="#000"/>
  <rect x="25" y="13" width="1" height="7" fill="#000"/>
  <rect x="5" y="20" width="1" height="5" fill="#000"/>
  <rect x="26" y="20" width="1" height="5" fill="#000"/>
  <rect x="6" y="25" width="2" height="1" fill="#000"/>
  <rect x="24" y="25" width="2" height="1" fill="#000"/>
  <rect x="8" y="26" width="16" height="1" fill="#000"/>

  <!-- Body fill (dark brown) -->
  <rect x="10" y="4" width="12" height="1" fill="#92400e"/>
  <rect x="9" y="5" width="14" height="3" fill="#92400e"/>
  <rect x="8" y="8" width="16" height="5" fill="#92400e"/>
  <rect x="7" y="13" width="18" height="7" fill="#92400e"/>
  <rect x="6" y="20" width="20" height="5" fill="#92400e"/>
  <rect x="8" y="25" width="16" height="1" fill="#92400e"/>

  <!-- Face patch (lighter brown) -->
  <rect x="11" y="7" width="10" height="8" fill="#d97706"/>
  <rect x="12" y="15" width="8" height="5" fill="#d97706"/>

  <!-- Highlight -->
  <rect x="10" y="6" width="3" height="2" fill="#b45309"/>
  <rect x="9" y="8" width="2" height="1" fill="#b45309"/>

  <!-- Fierce eyes (narrowed) -->
  <rect x="10" y="9" width="4" height="3" fill="#fff"/>
  <rect x="18" y="9" width="4" height="3" fill="#fff"/>
  <!-- Pupils -->
  <rect x="12" y="10" width="2" height="2" fill="#000"/>
  <rect x="20" y="10" width="2" height="2" fill="#000"/>
  <!-- Eye shine -->
  <rect x="12" y="10" width="1" height="1" fill="#fff"/>
  <rect x="20" y="10" width="1" height="1" fill="#fff"/>
  <!-- Eyebrows (fierce) -->
  <rect x="10" y="8" width="4" height="1" fill="#000"/>
  <rect x="18" y="8" width="4" height="1" fill="#000"/>

  <!-- Nose -->
  <rect x="15" y="13" width="2" height="2" fill="#000"/>

  <!-- Confident grin -->
  <rect x="12" y="17" width="1" height="1" fill="#000"/>
  <rect x="13" y="18" width="6" height="1" fill="#000"/>
  <rect x="19" y="17" width="1" height="1" fill="#000"/>
  <!-- Fangs -->
  <rect x="13" y="17" width="1" height="1" fill="#fff"/>
  <rect x="18" y="17" width="1" height="1" fill="#fff"/>

  <!-- Cheek blush -->
  <rect x="8" y="12" width="2" height="2" fill="#fda4af"/>
  <rect x="22" y="12" width="2" height="2" fill="#fda4af"/>

  <!-- Chest fur (lighter) -->
  <rect x="11" y="21" width="10" height="4" fill="#fbbf24"/>

  <!-- Bushy tail -->
  <rect x="25" y="17" width="2" height="1" fill="#92400e"/>
  <rect x="26" y="16" width="2" height="1" fill="#92400e"/>
  <rect x="27" y="15" width="2" height="2" fill="#92400e"/>
  <rect x="28" y="17" width="1" height="1" fill="#b45309"/>
  <rect x="27" y="18" width="2" height="1" fill="#fbbf24"/>
</svg>
