<svg xmlns="http://www.w3.org/2000/svg" viewBox="0 0 32 32" shape-rendering="crispEdges">
  <!-- Dog Baby - Light brown puppy with floppy ears -->

  <!-- Shadow -->
  <rect x="8" y="28" width="16" height="2" fill="#78350f"/>

  <!-- Floppy ears (left) -->
  <rect x="6" y="6" width="3" height="1" fill="#000"/>
  <rect x="5" y="7" width="1" height="5" fill="#000"/>
  <rect x="9" y="7" width="1" height="2" fill="#000"/>
  <rect x="6" y="9" width="3" height="1" fill="#000"/>
  <rect x="6" y="10" width="1" height="2" fill="#000"/>
  <rect x="6" y="12" width="2" height="1" fill="#000"/>
  <!-- Ear fill -->
  <rect x="6" y="7" width="3" height="2" fill="#d97706"/>
  <rect x="7" y="9" width="1" height="2" fill="#d97706"/>
  <rect x="7" y="11" width="1" height="1" fill="#fbbf24"/>

  <!-- Floppy ears (right) -->
  <rect x="23" y="6" width="3" height="1" fill="#000"/>
  <rect x="26" y="7" width="1" height="5" fill="#000"/>
  <rect x="22" y="7" width="1" height="2" fill="#000"/>
  <rect x="23" y="9" width="3" height="1" fill="#000"/>
  <rect x="25" y="10" width="1" height="2" fill="#000"/>
  <rect x="24" y="12" width="2" height="1" fill="#000"/>
  <!-- Ear fill -->
  <rect x="23" y="7" width="3" height="2" fill="#d97706"/>
  <rect x="24" y="9" width="1" height="2" fill="#d97706"/>
  <rect x="24" y="11" width="1" height="1" fill="#fbbf24"/>

  <!-- Head outline -->
  <rect x="12" y="4" width="8" height="1" fill="#000"/>
  <rect x="10" y="5" width="2" height="1" fill="#000"/>
  <rect x="20" y="5" width="2" height="1" fill="#000"/>
  <rect x="9" y="6" width="1" height="3" fill="#000"/>
  <rect x="22" y="6" width="1" height="3" fill="#000"/>
  <rect x="8" y="9" width="1" height="4" fill="#000"/>
  <rect x="23" y="9" width="1" height="4" fill="#000"/>

  <!-- Body outline -->
  <rect x="7" y="13" width="1" height="7" fill="#000"/>
  <rect x="24" y="13" width="1" height="7" fill="#000"/>
  <rect x="6" y="20" width="1" height="5" fill="#000"/>
  <rect x="25" y="20" width="1" height="5" fill="#000"/>
  <rect x="7" y="25" width="2" height="1" fill="#000"/>
  <rect x="23" y="25" width="2" height="1" fill="#000"/>
  <rect x="9" y="26" width="14" height="1" fill="#000"/>

  <!-- Body fill (light brown) -->
  <rect x="12" y="5" width="8" height="1" fill="#fbbf24"/>
  <rect x="10" y="6" width="12" height="3" fill="#fbbf24"/>
  <rect x="9" y="9" width="14" height="4" fill="#fbbf24"/>
  <rect x="8" y="13" width="16" height="7" fill="#fbbf24"/>
  <rect x="7" y="20" width="18" height="5" fill="#fbbf24"/>
  <rect x="9" y="25" width="14" height="1" fill="#fbbf24"/>

  <!-- Face patch (cream/white) -->
  <rect x="12" y="10" width="8" height="6" fill="#fef3c7"/>
  <rect x="13" y="16" width="6" height="3" fill="#fef3c7"/>

  <!-- Highlight -->
  <rect x="11" y="7" width="3" height="2" fill="#fcd34d"/>
  <rect x="10" y="9" width="2" height="1" fill="#fcd34d"/>

  <!-- Eyes -->
  <rect x="11" y="11" width="3" height="3" fill="#fff"/>
  <rect x="18" y="11" width="3" height="3" fill="#fff"/>
  <!-- Pupils -->
  <rect x="12" y="12" width="2" height="2" fill="#000"/>
  <rect x="19" y="12" width="2" height="2" fill="#000"/>
  <!-- Eye shine -->
  <rect x="12" y="12" width="1" height="1" fill="#fff"/>
  <rect x="19" y="12" width="1" height="1" fill="#fff"/>

  <!-- Nose (black) -->
  <rect x="15" y="15" width="2" height="2" fill="#000"/>

  <!-- Tongue -->
  <rect x="15" y="17" width="2" height="2" fill="#f472b6"/>
  <rect x="15" y="19" width="1" height="1" fill="#f472b6"/>

  <!-- Cheek blush -->
  <rect x="9" y="15" width="2" height="2" fill="#fda4af"/>
  <rect x="21" y="15" width="2" height="2" fill="#fda4af"/>

  <!-- Tail (wagging) -->
  <rect x="24" y="21" width="2" height="1" fill="#d97706"/>
  <rect x="25" y="20" width="1" height="1" fill="#d97706"/>
  <rect x="26" y="19" width="1" height="1" fill="#fbbf24"/>
</svg>
