<svg xmlns="http://www.w3.org/2000/svg" viewBox="0 0 32 32" shape-rendering="crispEdges">
  <!-- Xiaotian Dog (哮天犬) - Majestic celestial hound with flames -->

  <!-- Shadow -->
  <rect x="5" y="29" width="22" height="2" fill="#78350f"/>

  <!-- Flame aura (left) -->
  <rect x="2" y="10" width="1" height="1" fill="#fbbf24"/>
  <rect x="1" y="11" width="2" height="1" fill="#f97316"/>
  <rect x="0" y="12" width="2" height="2" fill="#ef4444"/>
  <rect x="1" y="14" width="2" height="2" fill="#f97316"/>
  <rect x="2" y="16" width="2" height="1" fill="#fbbf24"/>
  <rect x="3" y="13" width="1" height="2" fill="#fcd34d"/>

  <!-- Flame aura (right) -->
  <rect x="29" y="10" width="1" height="1" fill="#fbbf24"/>
  <rect x="29" y="11" width="2" height="1" fill="#f97316"/>
  <rect x="30" y="12" width="2" height="2" fill="#ef4444"/>
  <rect x="29" y="14" width="2" height="2" fill="#f97316"/>
  <rect x="28" y="16" width="2" height="1" fill="#fbbf24"/>
  <rect x="28" y="13" width="1" height="2" fill="#fcd34d"/>

  <!-- Majestic ears (left) -->
  <rect x="6" y="0" width="3" height="1" fill="#000"/>
  <rect x="5" y="1" width="1" height="4" fill="#000"/>
  <rect x="9" y="1" width="1" height="1" fill="#000"/>
  <rect x="6" y="2" width="3" height="1" fill="#000"/>
  <rect x="6" y="3" width="1" height="2" fill="#000"/>
  <rect x="7" y="4" width="3" height="1" fill="#000"/>
  <!-- Ear fill -->
  <rect x="6" y="1" width="3" height="1" fill="#7c2d12"/>
  <rect x="7" y="2" width="1" height="1" fill="#7c2d12"/>
  <rect x="7" y="3" width="1" height="1" fill="#f97316"/>

  <!-- Majestic ears (right) -->
  <rect x="23" y="0" width="3" height="1" fill="#000"/>
  <rect x="26" y="1" width="1" height="4" fill="#000"/>
  <rect x="22" y="1" width="1" height="1" fill="#000"/>
  <rect x="23" y="2" width="3" height="1" fill="#000"/>
  <rect x="25" y="3" width="1" height="2" fill="#000"/>
  <rect x="22" y="4" width="3" height="1" fill="#000"/>
  <!-- Ear fill -->
  <rect x="23" y="1" width="3" height="1" fill="#7c2d12"/>
  <rect x="24" y="2" width="1" height="1" fill="#7c2d12"/>
  <rect x="24" y="3" width="1" height="1" fill="#f97316"/>

  <!-- Celestial marking (forehead) -->
  <rect x="15" y="3" width="2" height="1" fill="#fcd34d"/>
  <rect x="14" y="4" width="4" height="1" fill="#fbbf24"/>
  <rect x="15" y="5" width="2" height="1" fill="#f97316"/>

  <!-- Head outline -->
  <rect x="9" y="3" width="14" height="1" fill="#000"/>
  <rect x="8" y="4" width="1" height="1" fill="#000"/>
  <rect x="23" y="4" width="1" height="1" fill="#000"/>
  <rect x="7" y="5" width="1" height="3" fill="#000"/>
  <rect x="24" y="5" width="1" height="3" fill="#000"/>
  <rect x="6" y="8" width="1" height="5" fill="#000"/>
  <rect x="25" y="8" width="1" height="5" fill="#000"/>

  <!-- Body outline -->
  <rect x="5" y="13" width="1" height="8" fill="#000"/>
  <rect x="26" y="13" width="1" height="8" fill="#000"/>
  <rect x="4" y="21" width="1" height="5" fill="#000"/>
  <rect x="27" y="21" width="1" height="5" fill="#000"/>
  <rect x="5" y="26" width="2" height="1" fill="#000"/>
  <rect x="25" y="26" width="2" height="1" fill="#000"/>
  <rect x="7" y="27" width="18" height="1" fill="#000"/>

  <!-- Body fill (dark reddish brown) -->
  <rect x="9" y="4" width="14" height="1" fill="#7c2d12"/>
  <rect x="8" y="5" width="16" height="3" fill="#7c2d12"/>
  <rect x="7" y="8" width="18" height="5" fill="#7c2d12"/>
  <rect x="6" y="13" width="20" height="8" fill="#7c2d12"/>
  <rect x="5" y="21" width="22" height="5" fill="#7c2d12"/>
  <rect x="7" y="26" width="18" height="1" fill="#7c2d12"/>

  <!-- Face patch -->
  <rect x="10" y="7" width="12" height="8" fill="#b45309"/>
  <rect x="11" y="15" width="10" height="5" fill="#b45309"/>

  <!-- Highlight -->
  <rect x="9" y="6" width="4" height="2" fill="#92400e"/>
  <rect x="8" y="8" width="3" height="1" fill="#92400e"/>

  <!-- Fierce divine eyes -->
  <rect x="9" y="9" width="5" height="4" fill="#fff"/>
  <rect x="18" y="9" width="5" height="4" fill="#fff"/>
  <!-- Pupils (golden divine) -->
  <rect x="11" y="10" width="3" height="3" fill="#fbbf24"/>
  <rect x="20" y="10" width="3" height="3" fill="#fbbf24"/>
  <!-- Inner pupil -->
  <rect x="12" y="11" width="2" height="2" fill="#000"/>
  <rect x="21" y="11" width="2" height="2" fill="#000"/>
  <!-- Eye shine -->
  <rect x="12" y="11" width="1" height="1" fill="#fff"/>
  <rect x="21" y="11" width="1" height="1" fill="#fff"/>
  <!-- Divine glow -->
  <rect x="11" y="10" width="1" height="1" fill="#fef3c7"/>
  <rect x="20" y="10" width="1" height="1" fill="#fef3c7"/>

  <!-- Nose -->
  <rect x="15" y="14" width="2" height="2" fill="#000"/>

  <!-- Powerful jaw -->
  <rect x="11" y="18" width="1" height="1" fill="#000"/>
  <rect x="12" y="19" width="8" height="1" fill="#000"/>
  <rect x="20" y="18" width="1" height="1" fill="#000"/>
  <!-- Fangs -->
  <rect x="12" y="17" width="1" height="2" fill="#fff"/>
  <rect x="14" y="17" width="1" height="1" fill="#fff"/>
  <rect x="17" y="17" width="1" height="1" fill="#fff"/>
  <rect x="19" y="17" width="1" height="2" fill="#fff"/>

  <!-- Chest flame pattern -->
  <rect x="10" y="22" width="12" height="4" fill="#fbbf24"/>
  <rect x="12" y="23" width="8" height="2" fill="#f97316"/>
  <rect x="14" y="24" width="4" height="1" fill="#ef4444"/>

  <!-- Flaming tail -->
  <rect x="26" y="16" width="2" height="1" fill="#7c2d12"/>
  <rect x="27" y="15" width="2" height="1" fill="#b45309"/>
  <rect x="28" y="14" width="2" height="1" fill="#fbbf24"/>
  <rect x="29" y="13" width="2" height="1" fill="#f97316"/>
  <rect x="30" y="12" width="1" height="1" fill="#ef4444"/>
  <rect x="28" y="16" width="2" height="1" fill="#fbbf24"/>
  <rect x="27" y="17" width="2" height="1" fill="#f97316"/>

  <!-- Sparkles -->
  <rect x="3" y="6" width="1" height="1" fill="#fcd34d"/>
  <rect x="28" y="4" width="1" height="1" fill="#fcd34d"/>
  <rect x="2" y="20" width="1" height="1" fill="#fcd34d"/>
  <rect x="29" y="22" width="1" height="1" fill="#fcd34d"/>
</svg>
