<svg xmlns="http://www.w3.org/2000/svg" viewBox="0 0 32 32" shape-rendering="crispEdges">
  <!-- Dog Child - Brown shiba with pointed ears -->

  <!-- Shadow -->
  <rect x="7" y="28" width="18" height="2" fill="#78350f"/>

  <!-- Pointed ears (left) -->
  <rect x="8" y="2" width="3" height="1" fill="#000"/>
  <rect x="7" y="3" width="1" height="3" fill="#000"/>
  <rect x="11" y="3" width="1" height="1" fill="#000"/>
  <rect x="8" y="4" width="3" height="1" fill="#000"/>
  <rect x="8" y="5" width="1" height="2" fill="#000"/>
  <rect x="9" y="6" width="2" height="1" fill="#000"/>
  <!-- Ear fill -->
  <rect x="8" y="3" width="3" height="1" fill="#b45309"/>
  <rect x="9" y="4" width="1" height="1" fill="#b45309"/>
  <rect x="9" y="5" width="1" height="1" fill="#fda4af"/>

  <!-- Pointed ears (right) -->
  <rect x="21" y="2" width="3" height="1" fill="#000"/>
  <rect x="24" y="3" width="1" height="3" fill="#000"/>
  <rect x="20" y="3" width="1" height="1" fill="#000"/>
  <rect x="21" y="4" width="3" height="1" fill="#000"/>
  <rect x="23" y="5" width="1" height="2" fill="#000"/>
  <rect x="21" y="6" width="2" height="1" fill="#000"/>
  <!-- Ear fill -->
  <rect x="21" y="3" width="3" height="1" fill="#b45309"/>
  <rect x="22" y="4" width="1" height="1" fill="#b45309"/>
  <rect x="22" y="5" width="1" height="1" fill="#fda4af"/>

  <!-- Head outline -->
  <rect x="11" y="4" width="10" height="1" fill="#000"/>
  <rect x="10" y="5" width="1" height="1" fill="#000"/>
  <rect x="21" y="5" width="1" height="1" fill="#000"/>
  <rect x="9" y="6" width="1" height="3" fill="#000"/>
  <rect x="22" y="6" width="1" height="3" fill="#000"/>
  <rect x="8" y="9" width="1" height="4" fill="#000"/>
  <rect x="23" y="9" width="1" height="4" fill="#000"/>

  <!-- Body outline -->
  <rect x="7" y="13" width="1" height="7" fill="#000"/>
  <rect x="24" y="13" width="1" height="7" fill="#000"/>
  <rect x="6" y="20" width="1" height="5" fill="#000"/>
  <rect x="25" y="20" width="1" height="5" fill="#000"/>
  <rect x="7" y="25" width="2" height="1" fill="#000"/>
  <rect x="23" y="25" width="2" height="1" fill="#000"/>
  <rect x="9" y="26" width="14" height="1" fill="#000"/>

  <!-- Body fill (brown) -->
  <rect x="11" y="5" width="10" height="1" fill="#b45309"/>
  <rect x="10" y="6" width="12" height="3" fill="#b45309"/>
  <rect x="9" y="9" width="14" height="4" fill="#b45309"/>
  <rect x="8" y="13" width="16" height="7" fill="#b45309"/>
  <rect x="7" y="20" width="18" height="5" fill="#b45309"/>
  <rect x="9" y="25" width="14" height="1" fill="#b45309"/>

  <!-- Face patch (cream) -->
  <rect x="12" y="8" width="8" height="8" fill="#fef3c7"/>
  <rect x="13" y="16" width="6" height="4" fill="#fef3c7"/>

  <!-- Highlight -->
  <rect x="11" y="7" width="3" height="2" fill="#d97706"/>
  <rect x="10" y="9" width="2" height="1" fill="#d97706"/>

  <!-- Eyes -->
  <rect x="11" y="10" width="3" height="3" fill="#fff"/>
  <rect x="18" y="10" width="3" height="3" fill="#fff"/>
  <!-- Pupils -->
  <rect x="12" y="11" width="2" height="2" fill="#000"/>
  <rect x="19" y="11" width="2" height="2" fill="#000"/>
  <!-- Eye shine -->
  <rect x="12" y="11" width="1" height="1" fill="#fff"/>
  <rect x="19" y="11" width="1" height="1" fill="#fff"/>

  <!-- Nose -->
  <rect x="15" y="14" width="2" height="2" fill="#000"/>

  <!-- Smile -->
  <rect x="13" y="17" width="1" height="1" fill="#000"/>
  <rect x="14" y="18" width="4" height="1" fill="#000"/>
  <rect x="18" y="17" width="1" height="1" fill="#000"/>

  <!-- Cheek blush -->
  <rect x="9" y="13" width="2" height="2" fill="#fda4af"/>
  <rect x="21" y="13" width="2" height="2" fill="#fda4af"/>

  <!-- Chest patch (cream) -->
  <rect x="12" y="21" width="8" height="4" fill="#fef3c7"/>

  <!-- Curled tail -->
  <rect x="24" y="19" width="2" height="1" fill="#b45309"/>
  <rect x="25" y="18" width="1" height="1" fill="#b45309"/>
  <rect x="26" y="17" width="1" height="2" fill="#b45309"/>
  <rect x="25" y="16" width="1" height="1" fill="#d97706"/>
</svg>
