<svg xmlns="http://www.w3.org/2000/svg" viewBox="0 0 32 32" shape-rendering="crispEdges">
  <!-- Tamagotchi-style Teen Slime with wings -->
  <!-- Cool look with bigger horns and small wings -->

  <!-- Shadow -->
  <rect x="7" y="28" width="18" height="2" fill="#9ca3af"/>

  <!-- Wings (left) -->
  <rect x="3" y="14" width="1" height="1" fill="#000"/>
  <rect x="2" y="15" width="1" height="3" fill="#000"/>
  <rect x="3" y="18" width="1" height="1" fill="#000"/>
  <rect x="4" y="15" width="1" height="3" fill="#000"/>
  <rect x="5" y="16" width="1" height="2" fill="#000"/>
  <rect x="3" y="15" width="1" height="3" fill="#e9d5ff"/>
  <rect x="4" y="16" width="1" height="1" fill="#f3e8ff"/>

  <!-- Wings (right) -->
  <rect x="28" y="14" width="1" height="1" fill="#000"/>
  <rect x="29" y="15" width="1" height="3" fill="#000"/>
  <rect x="28" y="18" width="1" height="1" fill="#000"/>
  <rect x="27" y="15" width="1" height="3" fill="#000"/>
  <rect x="26" y="16" width="1" height="2" fill="#000"/>
  <rect x="28" y="15" width="1" height="3" fill="#e9d5ff"/>
  <rect x="27" y="16" width="1" height="1" fill="#f3e8ff"/>

  <!-- Horns outline -->
  <rect x="8" y="2" width="2" height="1" fill="#000"/>
  <rect x="7" y="3" width="1" height="3" fill="#000"/>
  <rect x="10" y="3" width="1" height="2" fill="#000"/>
  <rect x="8" y="5" width="2" height="1" fill="#000"/>

  <rect x="22" y="2" width="2" height="1" fill="#000"/>
  <rect x="24" y="3" width="1" height="3" fill="#000"/>
  <rect x="21" y="3" width="1" height="2" fill="#000"/>
  <rect x="22" y="5" width="2" height="1" fill="#000"/>

  <!-- Horn fill -->
  <rect x="8" y="3" width="2" height="2" fill="#8b5cf6"/>
  <rect x="22" y="3" width="2" height="2" fill="#8b5cf6"/>

  <!-- Body outline -->
  <rect x="12" y="5" width="8" height="1" fill="#000"/>
  <rect x="10" y="6" width="2" height="1" fill="#000"/>
  <rect x="20" y="6" width="2" height="1" fill="#000"/>
  <rect x="9" y="7" width="1" height="2" fill="#000"/>
  <rect x="22" y="7" width="1" height="2" fill="#000"/>
  <rect x="8" y="9" width="1" height="3" fill="#000"/>
  <rect x="23" y="9" width="1" height="3" fill="#000"/>
  <rect x="7" y="12" width="1" height="6" fill="#000"/>
  <rect x="24" y="12" width="1" height="6" fill="#000"/>
  <rect x="6" y="18" width="1" height="5" fill="#000"/>
  <rect x="25" y="18" width="1" height="5" fill="#000"/>
  <rect x="7" y="23" width="1" height="2" fill="#000"/>
  <rect x="24" y="23" width="1" height="2" fill="#000"/>
  <rect x="8" y="25" width="2" height="1" fill="#000"/>
  <rect x="22" y="25" width="2" height="1" fill="#000"/>
  <rect x="10" y="26" width="12" height="1" fill="#000"/>

  <!-- Body fill (deeper purple) -->
  <rect x="12" y="6" width="8" height="1" fill="#a78bfa"/>
  <rect x="10" y="7" width="12" height="2" fill="#a78bfa"/>
  <rect x="9" y="9" width="14" height="3" fill="#a78bfa"/>
  <rect x="8" y="12" width="16" height="6" fill="#a78bfa"/>
  <rect x="7" y="18" width="18" height="5" fill="#a78bfa"/>
  <rect x="8" y="23" width="16" height="2" fill="#a78bfa"/>
  <rect x="10" y="25" width="12" height="1" fill="#a78bfa"/>

  <!-- Highlight -->
  <rect x="11" y="8" width="3" height="2" fill="#c4b5fd"/>
  <rect x="10" y="10" width="2" height="1" fill="#c4b5fd"/>

  <!-- Cool eyes (slightly narrowed) -->
  <rect x="10" y="14" width="4" height="3" fill="#fff"/>
  <rect x="18" y="14" width="4" height="3" fill="#fff"/>
  <!-- Pupils -->
  <rect x="12" y="15" width="2" height="2" fill="#000"/>
  <rect x="20" y="15" width="2" height="2" fill="#000"/>
  <!-- Eye shine -->
  <rect x="12" y="15" width="1" height="1" fill="#fff"/>
  <rect x="20" y="15" width="1" height="1" fill="#fff"/>

  <!-- Confident smirk -->
  <rect x="13" y="20" width="1" height="1" fill="#000"/>
  <rect x="14" y="21" width="5" height="1" fill="#000"/>
  <rect x="19" y="20" width="1" height="1" fill="#000"/>

  <!-- Cheek blush -->
  <rect x="8" y="17" width="2" height="2" fill="#fda4af"/>
  <rect x="22" y="17" width="2" height="2" fill="#fda4af"/>
</svg>
