<svg xmlns="http://www.w3.org/2000/svg" viewBox="0 0 32 32" shape-rendering="crispEdges">
  <!-- Slime Child - Medium green with small horns -->

  <!-- Shadow -->
  <rect x="8" y="28" width="16" height="2" fill="#166534"/>

  <!-- Small horns outline -->
  <rect x="9" y="4" width="2" height="1" fill="#000"/>
  <rect x="8" y="5" width="1" height="2" fill="#000"/>
  <rect x="11" y="5" width="1" height="2" fill="#000"/>
  <rect x="9" y="7" width="2" height="1" fill="#000"/>

  <rect x="21" y="4" width="2" height="1" fill="#000"/>
  <rect x="20" y="5" width="1" height="2" fill="#000"/>
  <rect x="23" y="5" width="1" height="2" fill="#000"/>
  <rect x="21" y="7" width="2" height="1" fill="#000"/>

  <!-- Horn fill (darker green) -->
  <rect x="9" y="5" width="2" height="2" fill="#22c55e"/>
  <rect x="21" y="5" width="2" height="2" fill="#22c55e"/>

  <!-- Body outline (black) -->
  <rect x="13" y="6" width="6" height="1" fill="#000"/>
  <rect x="11" y="7" width="2" height="1" fill="#000"/>
  <rect x="19" y="7" width="2" height="1" fill="#000"/>
  <rect x="10" y="8" width="1" height="2" fill="#000"/>
  <rect x="21" y="8" width="1" height="2" fill="#000"/>
  <rect x="9" y="10" width="1" height="2" fill="#000"/>
  <rect x="22" y="10" width="1" height="2" fill="#000"/>
  <rect x="8" y="12" width="1" height="4" fill="#000"/>
  <rect x="23" y="12" width="1" height="4" fill="#000"/>
  <rect x="7" y="16" width="1" height="6" fill="#000"/>
  <rect x="24" y="16" width="1" height="6" fill="#000"/>
  <rect x="8" y="22" width="1" height="3" fill="#000"/>
  <rect x="23" y="22" width="1" height="3" fill="#000"/>
  <rect x="9" y="25" width="2" height="1" fill="#000"/>
  <rect x="21" y="25" width="2" height="1" fill="#000"/>
  <rect x="11" y="26" width="10" height="1" fill="#000"/>

  <!-- Body fill (medium green) -->
  <rect x="13" y="7" width="6" height="1" fill="#22c55e"/>
  <rect x="11" y="8" width="10" height="2" fill="#22c55e"/>
  <rect x="10" y="10" width="12" height="2" fill="#22c55e"/>
  <rect x="9" y="12" width="14" height="4" fill="#22c55e"/>
  <rect x="8" y="16" width="16" height="6" fill="#22c55e"/>
  <rect x="9" y="22" width="14" height="3" fill="#22c55e"/>
  <rect x="11" y="25" width="10" height="1" fill="#22c55e"/>

  <!-- Highlight -->
  <rect x="11" y="9" width="3" height="2" fill="#4ade80"/>
  <rect x="10" y="11" width="2" height="1" fill="#4ade80"/>

  <!-- Eyes -->
  <rect x="11" y="14" width="3" height="3" fill="#fff"/>
  <rect x="18" y="14" width="3" height="3" fill="#fff"/>
  <!-- Pupils -->
  <rect x="12" y="15" width="2" height="2" fill="#000"/>
  <rect x="19" y="15" width="2" height="2" fill="#000"/>
  <!-- Eye shine -->
  <rect x="12" y="15" width="1" height="1" fill="#fff"/>
  <rect x="19" y="15" width="1" height="1" fill="#fff"/>

  <!-- Happy mouth -->
  <rect x="13" y="20" width="1" height="1" fill="#000"/>
  <rect x="14" y="21" width="4" height="1" fill="#000"/>
  <rect x="18" y="20" width="1" height="1" fill="#000"/>

  <!-- Cheek blush -->
  <rect x="9" y="17" width="2" height="2" fill="#fda4af"/>
  <rect x="21" y="17" width="2" height="2" fill="#fda4af"/>
</svg>
