<svg xmlns="http://www.w3.org/2000/svg" viewBox="0 0 32 32" shape-rendering="crispEdges">
  <!-- King Slime - Forest green with golden crown and grand wings -->

  <!-- Shadow -->
  <rect x="6" y="29" width="20" height="2" fill="#166534"/>

  <!-- Grand wings (left) -->
  <rect x="1" y="11" width="1" height="1" fill="#000"/>
  <rect x="0" y="12" width="1" height="5" fill="#000"/>
  <rect x="1" y="17" width="1" height="1" fill="#000"/>
  <rect x="2" y="12" width="1" height="5" fill="#000"/>
  <rect x="3" y="13" width="1" height="4" fill="#000"/>
  <rect x="4" y="14" width="1" height="3" fill="#000"/>
  <rect x="5" y="15" width="1" height="2" fill="#000"/>
  <rect x="1" y="12" width="1" height="5" fill="#86efac"/>
  <rect x="2" y="13" width="1" height="3" fill="#bbf7d0"/>
  <rect x="3" y="14" width="1" height="2" fill="#dcfce7"/>

  <!-- Grand wings (right) -->
  <rect x="30" y="11" width="1" height="1" fill="#000"/>
  <rect x="31" y="12" width="1" height="5" fill="#000"/>
  <rect x="30" y="17" width="1" height="1" fill="#000"/>
  <rect x="29" y="12" width="1" height="5" fill="#000"/>
  <rect x="28" y="13" width="1" height="4" fill="#000"/>
  <rect x="27" y="14" width="1" height="3" fill="#000"/>
  <rect x="26" y="15" width="1" height="2" fill="#000"/>
  <rect x="30" y="12" width="1" height="5" fill="#86efac"/>
  <rect x="29" y="13" width="1" height="3" fill="#bbf7d0"/>
  <rect x="28" y="14" width="1" height="2" fill="#dcfce7"/>

  <!-- Crown outline -->
  <rect x="11" y="2" width="10" height="1" fill="#000"/>
  <rect x="10" y="3" width="1" height="3" fill="#000"/>
  <rect x="21" y="3" width="1" height="3" fill="#000"/>
  <rect x="11" y="6" width="10" height="1" fill="#000"/>
  <!-- Crown points -->
  <rect x="12" y="1" width="2" height="1" fill="#000"/>
  <rect x="15" y="0" width="2" height="1" fill="#000"/>
  <rect x="18" y="1" width="2" height="1" fill="#000"/>

  <!-- Crown fill (gold) -->
  <rect x="11" y="3" width="10" height="3" fill="#fbbf24"/>
  <rect x="12" y="2" width="2" height="1" fill="#fbbf24"/>
  <rect x="15" y="1" width="2" height="2" fill="#fbbf24"/>
  <rect x="18" y="2" width="2" height="1" fill="#fbbf24"/>
  <!-- Crown jewels -->
  <rect x="13" y="4" width="1" height="1" fill="#f472b6"/>
  <rect x="15" y="3" width="2" height="1" fill="#22c55e"/>
  <rect x="18" y="4" width="1" height="1" fill="#60a5fa"/>
  <!-- Crown shine -->
  <rect x="12" y="3" width="1" height="1" fill="#fef3c7"/>

  <!-- Body outline -->
  <rect x="11" y="7" width="10" height="1" fill="#000"/>
  <rect x="9" y="8" width="2" height="1" fill="#000"/>
  <rect x="21" y="8" width="2" height="1" fill="#000"/>
  <rect x="8" y="9" width="1" height="2" fill="#000"/>
  <rect x="23" y="9" width="1" height="2" fill="#000"/>
  <rect x="7" y="11" width="1" height="3" fill="#000"/>
  <rect x="24" y="11" width="1" height="3" fill="#000"/>
  <rect x="6" y="14" width="1" height="6" fill="#000"/>
  <rect x="25" y="14" width="1" height="6" fill="#000"/>
  <rect x="5" y="20" width="1" height="5" fill="#000"/>
  <rect x="26" y="20" width="1" height="5" fill="#000"/>
  <rect x="6" y="25" width="1" height="2" fill="#000"/>
  <rect x="25" y="25" width="1" height="2" fill="#000"/>
  <rect x="7" y="27" width="2" height="1" fill="#000"/>
  <rect x="23" y="27" width="2" height="1" fill="#000"/>
  <rect x="9" y="28" width="14" height="1" fill="#000"/>

  <!-- Body fill (forest green) -->
  <rect x="11" y="8" width="10" height="1" fill="#15803d"/>
  <rect x="9" y="9" width="14" height="2" fill="#15803d"/>
  <rect x="8" y="11" width="16" height="3" fill="#15803d"/>
  <rect x="7" y="14" width="18" height="6" fill="#15803d"/>
  <rect x="6" y="20" width="20" height="5" fill="#15803d"/>
  <rect x="7" y="25" width="18" height="2" fill="#15803d"/>
  <rect x="9" y="27" width="14" height="1" fill="#15803d"/>

  <!-- Highlight -->
  <rect x="10" y="10" width="4" height="2" fill="#16a34a"/>
  <rect x="9" y="12" width="3" height="1" fill="#16a34a"/>

  <!-- Majestic eyes -->
  <rect x="9" y="16" width="4" height="4" fill="#fff"/>
  <rect x="19" y="16" width="4" height="4" fill="#fff"/>
  <!-- Pupils -->
  <rect x="11" y="17" width="2" height="2" fill="#000"/>
  <rect x="21" y="17" width="2" height="2" fill="#000"/>
  <!-- Eye shine -->
  <rect x="11" y="17" width="1" height="1" fill="#fff"/>
  <rect x="21" y="17" width="1" height="1" fill="#fff"/>

  <!-- Proud smile -->
  <rect x="12" y="22" width="1" height="1" fill="#000"/>
  <rect x="13" y="23" width="6" height="1" fill="#000"/>
  <rect x="19" y="22" width="1" height="1" fill="#000"/>

  <!-- Cheek blush -->
  <rect x="7" y="19" width="2" height="2" fill="#fda4af"/>
  <rect x="23" y="19" width="2" height="2" fill="#fda4af"/>

  <!-- Sparkles -->
  <rect x="3" y="8" width="1" height="1" fill="#fcd34d"/>
  <rect x="28" y="6" width="1" height="1" fill="#fcd34d"/>
  <rect x="4" y="22" width="1" height="1" fill="#fcd34d"/>
  <rect x="27" y="24" width="1" height="1" fill="#fcd34d"/>
</svg>
