<svg xmlns="http://www.w3.org/2000/svg" viewBox="0 0 32 32" shape-rendering="crispEdges">
  <!-- Slime Baby - Green teardrop shape -->

  <!-- Shadow -->
  <rect x="9" y="28" width="14" height="2" fill="#166534"/>

  <!-- Body outline (black) -->
  <rect x="14" y="4" width="4" height="1" fill="#000"/>
  <rect x="12" y="5" width="2" height="1" fill="#000"/>
  <rect x="18" y="5" width="2" height="1" fill="#000"/>
  <rect x="11" y="6" width="1" height="1" fill="#000"/>
  <rect x="20" y="6" width="1" height="1" fill="#000"/>
  <rect x="10" y="7" width="1" height="2" fill="#000"/>
  <rect x="21" y="7" width="1" height="2" fill="#000"/>
  <rect x="9" y="9" width="1" height="3" fill="#000"/>
  <rect x="22" y="9" width="1" height="3" fill="#000"/>
  <rect x="8" y="12" width="1" height="6" fill="#000"/>
  <rect x="23" y="12" width="1" height="6" fill="#000"/>
  <rect x="7" y="18" width="1" height="6" fill="#000"/>
  <rect x="24" y="18" width="1" height="6" fill="#000"/>
  <rect x="8" y="24" width="1" height="2" fill="#000"/>
  <rect x="23" y="24" width="1" height="2" fill="#000"/>
  <rect x="9" y="26" width="2" height="1" fill="#000"/>
  <rect x="21" y="26" width="2" height="1" fill="#000"/>
  <rect x="11" y="27" width="10" height="1" fill="#000"/>

  <!-- Body fill (green) -->
  <rect x="14" y="5" width="4" height="1" fill="#4ade80"/>
  <rect x="12" y="6" width="8" height="1" fill="#4ade80"/>
  <rect x="11" y="7" width="10" height="2" fill="#4ade80"/>
  <rect x="10" y="9" width="12" height="3" fill="#4ade80"/>
  <rect x="9" y="12" width="14" height="6" fill="#4ade80"/>
  <rect x="8" y="18" width="16" height="6" fill="#4ade80"/>
  <rect x="9" y="24" width="14" height="2" fill="#4ade80"/>
  <rect x="11" y="26" width="10" height="1" fill="#4ade80"/>

  <!-- Highlight (lighter green) -->
  <rect x="12" y="7" width="3" height="2" fill="#86efac"/>
  <rect x="11" y="9" width="2" height="1" fill="#86efac"/>

  <!-- Eyes (big and round) -->
  <rect x="11" y="14" width="4" height="4" fill="#fff"/>
  <rect x="17" y="14" width="4" height="4" fill="#fff"/>
  <!-- Pupils -->
  <rect x="13" y="15" width="2" height="2" fill="#000"/>
  <rect x="19" y="15" width="2" height="2" fill="#000"/>
  <!-- Eye shine -->
  <rect x="13" y="15" width="1" height="1" fill="#fff"/>
  <rect x="19" y="15" width="1" height="1" fill="#fff"/>

  <!-- Smile -->
  <rect x="13" y="21" width="1" height="1" fill="#000"/>
  <rect x="14" y="22" width="4" height="1" fill="#000"/>
  <rect x="18" y="21" width="1" height="1" fill="#000"/>

  <!-- Cheek blush -->
  <rect x="9" y="19" width="2" height="2" fill="#fda4af"/>
  <rect x="21" y="19" width="2" height="2" fill="#fda4af"/>
</svg>
