<svg xmlns="http://www.w3.org/2000/svg" viewBox="0 0 32 32" shape-rendering="crispEdges">
  <!-- Pegasus Unicorn - Purple with majestic wings -->

  <!-- Shadow -->
  <rect x="5" y="29" width="22" height="2" fill="#be185d"/>

  <!-- Grand wings (left) -->
  <rect x="0" y="9" width="1" height="1" fill="#000"/>
  <rect x="0" y="10" width="1" height="6" fill="#000"/>
  <rect x="1" y="16" width="1" height="1" fill="#000"/>
  <rect x="1" y="10" width="1" height="6" fill="#000"/>
  <rect x="2" y="11" width="1" height="5" fill="#000"/>
  <rect x="3" y="12" width="1" height="4" fill="#000"/>
  <rect x="4" y="13" width="1" height="3" fill="#000"/>
  <rect x="5" y="14" width="1" height="2" fill="#000"/>
  <!-- Wing fill (gradient) -->
  <rect x="1" y="10" width="1" height="6" fill="#e9d5ff"/>
  <rect x="2" y="11" width="1" height="4" fill="#f3e8ff"/>
  <rect x="3" y="12" width="1" height="3" fill="#fdf4ff"/>
  <rect x="4" y="13" width="1" height="2" fill="#fff"/>

  <!-- Grand wings (right) -->
  <rect x="31" y="9" width="1" height="1" fill="#000"/>
  <rect x="31" y="10" width="1" height="6" fill="#000"/>
  <rect x="30" y="16" width="1" height="1" fill="#000"/>
  <rect x="30" y="10" width="1" height="6" fill="#000"/>
  <rect x="29" y="11" width="1" height="5" fill="#000"/>
  <rect x="28" y="12" width="1" height="4" fill="#000"/>
  <rect x="27" y="13" width="1" height="3" fill="#000"/>
  <rect x="26" y="14" width="1" height="2" fill="#000"/>
  <!-- Wing fill -->
  <rect x="30" y="10" width="1" height="6" fill="#e9d5ff"/>
  <rect x="29" y="11" width="1" height="4" fill="#f3e8ff"/>
  <rect x="28" y="12" width="1" height="3" fill="#fdf4ff"/>
  <rect x="27" y="13" width="1" height="2" fill="#fff"/>

  <!-- Majestic horn outline -->
  <rect x="15" y="0" width="2" height="1" fill="#000"/>
  <rect x="14" y="1" width="1" height="1" fill="#000"/>
  <rect x="17" y="1" width="1" height="1" fill="#000"/>
  <rect x="14" y="2" width="1" height="1" fill="#000"/>
  <rect x="17" y="2" width="1" height="1" fill="#000"/>
  <rect x="14" y="3" width="1" height="1" fill="#000"/>
  <rect x="17" y="3" width="1" height="1" fill="#000"/>
  <rect x="14" y="4" width="1" height="1" fill="#000"/>
  <rect x="17" y="4" width="1" height="1" fill="#000"/>
  <rect x="14" y="5" width="4" height="1" fill="#000"/>
  <!-- Horn fill (golden with glow) -->
  <rect x="15" y="1" width="2" height="1" fill="#fef3c7"/>
  <rect x="15" y="2" width="2" height="1" fill="#fcd34d"/>
  <rect x="15" y="3" width="2" height="1" fill="#fbbf24"/>
  <rect x="15" y="4" width="2" height="1" fill="#f59e0b"/>

  <!-- Crown/tiara -->
  <rect x="11" y="5" width="1" height="1" fill="#fbbf24"/>
  <rect x="12" y="4" width="1" height="1" fill="#fbbf24"/>
  <rect x="19" y="4" width="1" height="1" fill="#fbbf24"/>
  <rect x="20" y="5" width="1" height="1" fill="#fbbf24"/>

  <!-- Ears outline -->
  <rect x="7" y="4" width="2" height="1" fill="#000"/>
  <rect x="6" y="5" width="1" height="2" fill="#000"/>
  <rect x="9" y="5" width="1" height="1" fill="#000"/>
  <rect x="7" y="6" width="2" height="1" fill="#000"/>

  <rect x="23" y="4" width="2" height="1" fill="#000"/>
  <rect x="25" y="5" width="1" height="2" fill="#000"/>
  <rect x="22" y="5" width="1" height="1" fill="#000"/>
  <rect x="23" y="6" width="2" height="1" fill="#000"/>

  <!-- Ear fill -->
  <rect x="7" y="5" width="2" height="1" fill="#c084fc"/>
  <rect x="23" y="5" width="2" height="1" fill="#c084fc"/>

  <!-- Head outline -->
  <rect x="9" y="5" width="14" height="1" fill="#000"/>
  <rect x="8" y="6" width="1" height="1" fill="#000"/>
  <rect x="23" y="6" width="1" height="1" fill="#000"/>
  <rect x="7" y="7" width="1" height="3" fill="#000"/>
  <rect x="24" y="7" width="1" height="3" fill="#000"/>
  <rect x="6" y="10" width="1" height="4" fill="#000"/>
  <rect x="25" y="10" width="1" height="4" fill="#000"/>

  <!-- Body outline -->
  <rect x="5" y="14" width="1" height="7" fill="#000"/>
  <rect x="26" y="14" width="1" height="7" fill="#000"/>
  <rect x="4" y="21" width="1" height="5" fill="#000"/>
  <rect x="27" y="21" width="1" height="5" fill="#000"/>
  <rect x="5" y="26" width="2" height="1" fill="#000"/>
  <rect x="25" y="26" width="2" height="1" fill="#000"/>
  <rect x="7" y="27" width="18" height="1" fill="#000"/>

  <!-- Body fill (royal purple) -->
  <rect x="9" y="6" width="14" height="1" fill="#a855f7"/>
  <rect x="8" y="7" width="16" height="3" fill="#a855f7"/>
  <rect x="7" y="10" width="18" height="4" fill="#a855f7"/>
  <rect x="6" y="14" width="20" height="7" fill="#a855f7"/>
  <rect x="5" y="21" width="22" height="5" fill="#a855f7"/>
  <rect x="7" y="26" width="18" height="1" fill="#a855f7"/>

  <!-- Highlight -->
  <rect x="9" y="8" width="4" height="2" fill="#c084fc"/>
  <rect x="8" y="10" width="3" height="1" fill="#c084fc"/>

  <!-- Majestic mane (rainbow) -->
  <rect x="5" y="5" width="2" height="1" fill="#f472b6"/>
  <rect x="4" y="6" width="2" height="1" fill="#c084fc"/>
  <rect x="3" y="7" width="2" height="2" fill="#60a5fa"/>
  <rect x="2" y="9" width="2" height="2" fill="#34d399"/>
  <rect x="3" y="11" width="2" height="1" fill="#fbbf24"/>
  <rect x="4" y="12" width="2" height="1" fill="#f97316"/>

  <!-- Eyes -->
  <rect x="8" y="12" width="5" height="5" fill="#fff"/>
  <rect x="19" y="12" width="5" height="5" fill="#fff"/>
  <!-- Pupils -->
  <rect x="10" y="13" width="3" height="3" fill="#000"/>
  <rect x="21" y="13" width="3" height="3" fill="#000"/>
  <!-- Eye shine -->
  <rect x="10" y="13" width="1" height="1" fill="#fff"/>
  <rect x="21" y="13" width="1" height="1" fill="#fff"/>
  <!-- Star sparkle -->
  <rect x="12" y="14" width="1" height="1" fill="#c4b5fd"/>
  <rect x="23" y="14" width="1" height="1" fill="#c4b5fd"/>

  <!-- Elegant smile -->
  <rect x="10" y="19" width="1" height="1" fill="#000"/>
  <rect x="11" y="20" width="10" height="1" fill="#000"/>
  <rect x="21" y="19" width="1" height="1" fill="#000"/>

  <!-- Cheek blush -->
  <rect x="6" y="16" width="2" height="2" fill="#f472b6"/>
  <rect x="24" y="16" width="2" height="2" fill="#f472b6"/>

  <!-- Majestic rainbow tail -->
  <rect x="26" y="19" width="2" height="1" fill="#f472b6"/>
  <rect x="27" y="20" width="2" height="1" fill="#c084fc"/>
  <rect x="28" y="21" width="2" height="1" fill="#60a5fa"/>
  <rect x="29" y="22" width="2" height="1" fill="#34d399"/>
  <rect x="28" y="23" width="2" height="1" fill="#fbbf24"/>
  <rect x="27" y="24" width="2" height="1" fill="#f97316"/>

  <!-- Sparkles -->
  <rect x="2" y="5" width="1" height="1" fill="#fcd34d"/>
  <rect x="29" y="4" width="1" height="1" fill="#fcd34d"/>
  <rect x="3" y="18" width="1" height="1" fill="#fcd34d"/>
  <rect x="28" y="17" width="1" height="1" fill="#fcd34d"/>
</svg>
