<svg xmlns="http://www.w3.org/2000/svg" viewBox="0 0 32 32" shape-rendering="crispEdges">
  <!-- Unicorn Teen - Purple-pink with small wings forming -->

  <!-- Shadow -->
  <rect x="6" y="28" width="20" height="2" fill="#be185d"/>

  <!-- Small wings (left) -->
  <rect x="3" y="12" width="1" height="1" fill="#000"/>
  <rect x="2" y="13" width="1" height="3" fill="#000"/>
  <rect x="3" y="16" width="1" height="1" fill="#000"/>
  <rect x="4" y="13" width="1" height="3" fill="#000"/>
  <rect x="5" y="14" width="1" height="2" fill="#000"/>
  <rect x="3" y="13" width="1" height="3" fill="#e9d5ff"/>
  <rect x="4" y="14" width="1" height="1" fill="#f3e8ff"/>

  <!-- Small wings (right) -->
  <rect x="28" y="12" width="1" height="1" fill="#000"/>
  <rect x="29" y="13" width="1" height="3" fill="#000"/>
  <rect x="28" y="16" width="1" height="1" fill="#000"/>
  <rect x="27" y="13" width="1" height="3" fill="#000"/>
  <rect x="26" y="14" width="1" height="2" fill="#000"/>
  <rect x="28" y="13" width="1" height="3" fill="#e9d5ff"/>
  <rect x="27" y="14" width="1" height="1" fill="#f3e8ff"/>

  <!-- Horn outline (taller) -->
  <rect x="15" y="0" width="2" height="1" fill="#000"/>
  <rect x="14" y="1" width="1" height="1" fill="#000"/>
  <rect x="17" y="1" width="1" height="1" fill="#000"/>
  <rect x="14" y="2" width="1" height="1" fill="#000"/>
  <rect x="17" y="2" width="1" height="1" fill="#000"/>
  <rect x="14" y="3" width="1" height="1" fill="#000"/>
  <rect x="17" y="3" width="1" height="1" fill="#000"/>
  <rect x="14" y="4" width="4" height="1" fill="#000"/>
  <!-- Horn fill (golden with spiral) -->
  <rect x="15" y="1" width="2" height="1" fill="#fef3c7"/>
  <rect x="15" y="2" width="2" height="1" fill="#fcd34d"/>
  <rect x="15" y="3" width="2" height="1" fill="#fbbf24"/>

  <!-- Ears outline -->
  <rect x="8" y="3" width="2" height="1" fill="#000"/>
  <rect x="7" y="4" width="1" height="2" fill="#000"/>
  <rect x="10" y="4" width="1" height="1" fill="#000"/>
  <rect x="8" y="5" width="2" height="1" fill="#000"/>

  <rect x="22" y="3" width="2" height="1" fill="#000"/>
  <rect x="24" y="4" width="1" height="2" fill="#000"/>
  <rect x="21" y="4" width="1" height="1" fill="#000"/>
  <rect x="22" y="5" width="2" height="1" fill="#000"/>

  <!-- Ear fill -->
  <rect x="8" y="4" width="2" height="1" fill="#d8b4fe"/>
  <rect x="22" y="4" width="2" height="1" fill="#d8b4fe"/>

  <!-- Head outline -->
  <rect x="10" y="4" width="12" height="1" fill="#000"/>
  <rect x="9" y="5" width="1" height="1" fill="#000"/>
  <rect x="22" y="5" width="1" height="1" fill="#000"/>
  <rect x="8" y="6" width="1" height="3" fill="#000"/>
  <rect x="23" y="6" width="1" height="3" fill="#000"/>
  <rect x="7" y="9" width="1" height="4" fill="#000"/>
  <rect x="24" y="9" width="1" height="4" fill="#000"/>

  <!-- Body outline -->
  <rect x="6" y="13" width="1" height="7" fill="#000"/>
  <rect x="25" y="13" width="1" height="7" fill="#000"/>
  <rect x="5" y="20" width="1" height="5" fill="#000"/>
  <rect x="26" y="20" width="1" height="5" fill="#000"/>
  <rect x="6" y="25" width="2" height="1" fill="#000"/>
  <rect x="24" y="25" width="2" height="1" fill="#000"/>
  <rect x="8" y="26" width="16" height="1" fill="#000"/>

  <!-- Body fill (purple-pink) -->
  <rect x="10" y="5" width="12" height="1" fill="#d8b4fe"/>
  <rect x="9" y="6" width="14" height="3" fill="#d8b4fe"/>
  <rect x="8" y="9" width="16" height="4" fill="#d8b4fe"/>
  <rect x="7" y="13" width="18" height="7" fill="#d8b4fe"/>
  <rect x="6" y="20" width="20" height="5" fill="#d8b4fe"/>
  <rect x="8" y="25" width="16" height="1" fill="#d8b4fe"/>

  <!-- Highlight -->
  <rect x="10" y="7" width="3" height="2" fill="#e9d5ff"/>
  <rect x="9" y="9" width="2" height="1" fill="#e9d5ff"/>

  <!-- Flowing mane (rainbow) -->
  <rect x="6" y="5" width="2" height="1" fill="#f472b6"/>
  <rect x="5" y="6" width="2" height="1" fill="#c084fc"/>
  <rect x="4" y="7" width="2" height="2" fill="#60a5fa"/>
  <rect x="3" y="9" width="2" height="2" fill="#34d399"/>
  <rect x="4" y="11" width="2" height="1" fill="#fbbf24"/>

  <!-- Eyes -->
  <rect x="9" y="11" width="4" height="4" fill="#fff"/>
  <rect x="19" y="11" width="4" height="4" fill="#fff"/>
  <!-- Pupils -->
  <rect x="11" y="12" width="2" height="2" fill="#000"/>
  <rect x="21" y="12" width="2" height="2" fill="#000"/>
  <!-- Eye shine -->
  <rect x="11" y="12" width="1" height="1" fill="#fff"/>
  <rect x="21" y="12" width="1" height="1" fill="#fff"/>
  <!-- Star sparkle -->
  <rect x="12" y="12" width="1" height="1" fill="#c4b5fd"/>
  <rect x="22" y="12" width="1" height="1" fill="#c4b5fd"/>

  <!-- Confident smile -->
  <rect x="11" y="18" width="1" height="1" fill="#000"/>
  <rect x="12" y="19" width="8" height="1" fill="#000"/>
  <rect x="20" y="18" width="1" height="1" fill="#000"/>

  <!-- Cheek blush -->
  <rect x="7" y="15" width="2" height="2" fill="#f472b6"/>
  <rect x="23" y="15" width="2" height="2" fill="#f472b6"/>

  <!-- Rainbow tail -->
  <rect x="25" y="19" width="2" height="1" fill="#f472b6"/>
  <rect x="26" y="20" width="2" height="1" fill="#c084fc"/>
  <rect x="27" y="21" width="2" height="1" fill="#60a5fa"/>
  <rect x="27" y="22" width="2" height="1" fill="#34d399"/>
  <rect x="26" y="23" width="2" height="1" fill="#fbbf24"/>
  <rect x="25" y="24" width="2" height="1" fill="#f97316"/>

  <!-- Sparkles -->
  <rect x="3" y="8" width="1" height="1" fill="#fcd34d"/>
  <rect x="28" y="6" width="1" height="1" fill="#fcd34d"/>
</svg>
